<?xml version="1.0" standalone="no"?><!DOCTYPE svg PUBLIC "-//W3C//DTD SVG 1.1//EN" "http://www.w3.org/Graphics/SVG/1.1/DTD/svg11.dtd"><svg t="1620703653160" class="icon" viewBox="0 0 1024 1024" version="1.1" xmlns="http://www.w3.org/2000/svg" p-id="5631" xmlns:xlink="http://www.w3.org/1999/xlink" width="200" height="200"><defs><style type="text/css"></style></defs><path d="M830.592 284.416C828.736 268.224 815.04 256 798.72 256H639.04v-32c0-88.192-71.68-160-159.744-160s-159.744 71.808-159.744 160v32h-159.68c-16.32 0-29.952 12.224-31.744 28.416l-63.936 576c-1.024 9.088 1.92 18.112 8 24.96C78.272 892.096 86.848 896 95.936 896h766.72c9.088 0 17.728-3.904 23.808-10.624 6.016-6.784 8.96-15.872 7.936-24.96l-63.808-576zM383.488 224c0-52.928 43.008-96 95.808-96 52.864 0 95.872 43.072 95.872 96v32h-191.68v-32zM131.712 832l56.832-512h131.072v96c0 17.664 14.336 32 32 32 17.6 0 31.936-14.336 31.936-32v-96h191.68v96c-0.064 17.664 14.208 32 31.872 32 17.6 0 31.936-14.336 31.936-32v-96h131.136l56.832 512H131.712z" p-id="5632"></path></svg>